<?xml version="1.0" encoding="UTF-8"?><svg id="Layer_2" xmlns="http://www.w3.org/2000/svg" width="71.74mm" height="136.93mm" viewBox="0 0 203.35 388.15"><defs><style>.cls-1{fill:#6dcde9;}.cls-2{opacity:.3;}</style></defs><g id="Layer_1-2"><g class="cls-2"><path class="cls-1" d="M77.7,216.3c0-8.63,1.4-16.21,4.2-22.75,2.8-6.53,6.41-12.36,10.85-17.5,4.43-5.13,9.15-9.91,14.17-14.35,5.01-4.43,9.74-8.75,14.17-12.95,4.43-4.2,8.05-8.63,10.85-13.3,2.8-4.67,4.2-9.92,4.2-15.75,0-9.8-3.97-17.73-11.9-23.8-7.94-6.06-18.55-9.1-31.85-9.1s-23.98,2.34-33.43,7c-9.45,4.67-17.32,11.32-23.62,19.95L1.4,91.7c9.8-13.3,22.63-23.74,38.5-31.33,15.86-7.58,34.65-11.38,56.35-11.38,17.03,0,31.96,2.51,44.8,7.52,12.83,5.02,22.87,12.25,30.1,21.7,7.23,9.45,10.85,20.95,10.85,34.48,0,9.33-1.46,17.5-4.38,24.5-2.92,7-6.65,13.12-11.2,18.38-4.55,5.25-9.4,10.15-14.52,14.7-5.14,4.55-9.98,9.04-14.53,13.47-4.55,4.44-8.22,9.22-11.03,14.35-2.8,5.13-4.2,11.2-4.2,18.2h-44.45Zm22.4,83.65c-8.17,0-14.88-2.68-20.12-8.05-5.25-5.37-7.88-11.78-7.88-19.25s2.62-13.83,7.88-19.08,11.96-7.88,20.12-7.88,14.82,2.62,19.95,7.88c5.13,5.25,7.7,11.61,7.7,19.08s-2.57,13.88-7.7,19.25c-5.13,5.37-11.79,8.05-19.95,8.05Z"/></g></g></svg>