<?xml version="1.0" encoding="UTF-8"?><svg id="Layer_2" xmlns="http://www.w3.org/2000/svg" width="14.12mm" height="27.39mm" viewBox="0 0 40.04 77.63"><defs><style>.cls-1{fill:#6dcde9;}.cls-2{opacity:.3;}</style></defs><g id="Layer_1-2"><g class="cls-2"><path class="cls-1" d="M18.34,60.06c-3.45,0-6.8-.54-10.04-1.61-3.24-1.07-5.89-2.52-7.95-4.34l3.22-5.53c1.63,1.54,3.76,2.8,6.37,3.78,2.61,.98,5.41,1.47,8.4,1.47,3.64,0,6.48-.78,8.5-2.35,2.03-1.56,3.04-3.67,3.04-6.33s-.97-4.63-2.9-6.19c-1.94-1.56-5-2.35-9.21-2.35h-3.92v-4.9L28.42,13.79l.98,2.8H2.59v-6.09H34.93v4.76l-14.49,17.85-3.64-2.17h2.31c5.93,0,10.37,1.33,13.33,3.99,2.96,2.66,4.44,6.04,4.44,10.15,0,2.75-.68,5.27-2.03,7.56-1.35,2.29-3.4,4.09-6.12,5.42-2.73,1.33-6.2,2-10.4,2Z"/></g></g></svg>