<?xml version="1.0" encoding="UTF-8"?><svg id="Layer_2" xmlns="http://www.w3.org/2000/svg" width="14.17mm" height="27.39mm" viewBox="0 0 40.18 77.63"><defs><style>.cls-1{fill:#6dcde9;}.cls-2{opacity:.3;}</style></defs><g id="Layer_1-2"><g class="cls-2"><path class="cls-1" d="M2.59,59.5v-4.76l19.95-19.25c1.77-1.68,3.09-3.16,3.96-4.45,.86-1.28,1.45-2.47,1.75-3.57,.3-1.1,.46-2.16,.46-3.19,0-2.52-.89-4.5-2.66-5.95-1.77-1.45-4.36-2.17-7.77-2.17-2.61,0-4.97,.43-7.07,1.29-2.1,.86-3.92,2.21-5.46,4.03L.98,17.36c1.87-2.38,4.38-4.21,7.52-5.5,3.15-1.28,6.62-1.92,10.4-1.92,3.41,0,6.37,.55,8.89,1.64,2.52,1.1,4.47,2.67,5.84,4.73,1.38,2.05,2.07,4.48,2.07,7.28,0,1.59-.21,3.15-.63,4.69s-1.21,3.17-2.38,4.9c-1.17,1.73-2.85,3.66-5.04,5.81L9.87,56.14l-1.68-2.73h29.61v6.09H2.59Z"/></g></g></svg>