<?xml version="1.0" encoding="utf-8"?>
<!-- Generator: Adobe Illustrator 26.5.3, SVG Export Plug-In . SVG Version: 6.00 Build 0)  -->
<svg version="1.1" id="Layer_1" xmlns="http://www.w3.org/2000/svg" xmlns:xlink="http://www.w3.org/1999/xlink" x="0px" y="0px"
	 viewBox="0 0 1920 1080" style="enable-background:new 0 0 1920 1080;" xml:space="preserve">
<style type="text/css">
	.st0{fill:#73D0FF;}
	.st1{fill:#7CC9E7;}
</style>
<path class="st0" d="M299.2,1121.8c8.9,0,17.9,0.1,26.8,0.1c-14.4-0.2-28.8-0.2-43.2-0.3C288.3,1121.8,293.7,1121.8,299.2,1121.8z"
	/>
<path class="st0" d="M198.6,1159.9c-19.6-1.1-39.3-1.7-59-2.1c18.9,1.8,39.1,2.4,60.4,2.1C199.6,1160,199.1,1159.9,198.6,1159.9z"/>
<path class="st0" d="M-38.3,793.2c0.1,0.3,0.1,0.5,0.2,0.8c0.4,2,0.7,3.9,1.1,5.9c0-0.5,0-0.9,0.1-1.4c0.1-3.8,0.2-7.5,0.3-11.3
	c-0.1,0.4-0.2,0.7-0.3,1.1C-37.4,790-37.9,791.6-38.3,793.2z"/>
<path class="st0" d="M-85.9,821.6c-2.3-0.3-4.5-1.2-6.5-2.5c-3.9,8.5-7.6,17.1-11.3,25.8c1.5,0.5,3,0.9,4.6,1.4c1.5-2.7,3-5.3,4.5-8
	C-91.7,832.8-88.8,827.2-85.9,821.6z"/>
<path class="st1" d="M1942.8,965c-2.6-53.9-2.5-108-5.9-161.8c-3.5-54.7-6.7-109.3-6.7-164.1c0-2.9,0.7-5.6,2-7.9
	c-3-2.3-6-3.8-9.1-4.6c-6.2-1.6-11.2,0.3-19,3c0,0-43.8,47.4-154,60c-84.2,9.6-97.3-61.6-199-60c-73.1,1.1-68.3,23.4-140,25
	c-108.8,2.5-123.4-48.6-210-33c-52.2,9.4-71.3,32.3-121.2,25.2c-0.2,0-0.4,0-0.6,0c-0.9,0-1.7-0.1-2.5-0.2c-0.8,0.1-1.6,0.2-2.4,0.2
	c-2,0-4-0.4-5.7-1c-1.6-0.1-3-0.5-4.4-1c-24.6-2-46.4-11.4-69.3-19.9c-9.6-3.6-19.1-7.6-28.5-11.8c-2.1-1-4.3-1.9-6.4-2.9
	c-3.1-0.6-6.1-1.6-9.1-3c-0.9-0.4-1.8-0.9-2.6-1.4c-2.8-1-5.5-2-8.3-3c-4.3-1.5-8.7-2.5-13.2-3.4c-3-0.4-6-0.7-8.9-0.8
	c-8.6-0.6-17.3-0.5-25.9,0c-9.4,0.6-13.2,1.1-21.5,2.7c-2.7,0.9-5.5,1.8-8.2,2.8c-10.4,3.9-16.5,6.5-26.5,11.1
	c-9.5,4.4-19.2,8.3-28.5,12.9c-7.7,3.8-15.1,7.4-23.3,9.3c-9.4,4.8-23.3,10.3-51,17.1c-32.8,8.1-44,11.8-63,10
	c-20.7-2-34.4-9.1-51-17c-3.5-1.7-60.6-28.7-99-41c-16.4-5.2-68.4-21.3-130-12c-26.8,4.1-23.3,8.1-78,22
	c-52.5,13.4-76.8,47.1-101,47c-60.1-0.2-75.4-53.6-135-51c-14.8,0.6-56.2,3.1-83.4,13.9c0.2,43.1,3.6,86.1,4.5,129.2
	c0.4,19.2,0.3,38.4-0.9,57.5c-1.2,19.6-3.4,39.2-5.1,58.9c-1,12.1-2,24.2-3,36.4c0.2,2.5,0.1,5.1-0.6,7.9
	c-1.9,24.4-3.6,48.8-5.1,73.3c-1.2,19.6-2.3,39.3-3.2,58.9c6.2,18.2,12.9,35.5,16.6,51c0.3,0,0.5,0,0.8,0
	c36.6,0.1,72.8,6.2,109.4,7.6c33.2,1.3,66.5,0.4,99.7,0.3c33.4-0.1,66.8-0.2,100.3-0.1c67,0.3,134.1,1.8,201,7.2
	c2.4,0.2,4.7,0.8,6.7,1.7c0.4,0,0.8-0.1,1.2-0.1h74.7c43.8,0,87.7,1,131.5-0.1c40.3-1,80.2-7.8,120.5-9.2
	c18.2-1.5,36.7-2.9,55.3-4.1c172.5-11.4,318.8-6.4,442.9,2.9c23.3,0,46.7-0.1,70-0.1c104.2-0.3,208.3-1.1,312.5-1.1
	c0.2,0,0.5,0,0.7,0c42.4-1.3,84.9-2.5,127.3-2.5c6.6,0,12,3.7,14.8,9.1c22.3-12.2,88.7-3.8,57.7-52.3c-8.3-12.9,16.5-26.4,23.2-41.3
	C1944.7,999.8,1943.6,982.4,1942.8,965z"/>
<path class="st0" d="M1725.9,1138.1c12,0,23.5-0.3,34.6-1C1748.9,1137.4,1737.4,1137.8,1725.9,1138.1z"/>
<path class="st0" d="M2057-15"/>
</svg>
