<?xml version="1.0" encoding="utf-8"?>
<!-- Generator: Adobe Illustrator 26.5.3, SVG Export Plug-In . SVG Version: 6.00 Build 0)  -->
<svg version="1.1" id="Layer_1" xmlns="http://www.w3.org/2000/svg" xmlns:xlink="http://www.w3.org/1999/xlink" x="0px" y="0px"
	 viewBox="0 0 1920 1080" style="enable-background:new 0 0 1920 1080;" xml:space="preserve">
<style type="text/css">
	.st0{fill:#73D0FF;}
	.st1{fill:#DBF1F9;}
</style>
<path class="st0" d="M299.2,1121.8c8.9,0,17.9,0.1,26.8,0.1c-14.4-0.2-28.8-0.2-43.2-0.3C288.3,1121.8,293.7,1121.8,299.2,1121.8z"
	/>
<path class="st0" d="M198.6,1159.9c-19.6-1.1-39.3-1.7-59-2.1c18.9,1.8,39.1,2.4,60.4,2.1C199.6,1160,199.1,1159.9,198.6,1159.9z"/>
<path class="st0" d="M-38.3,793.2c0.1,0.3,0.1,0.5,0.2,0.8c0.4,2,0.7,3.9,1.1,5.9c0-0.5,0-0.9,0.1-1.4c0.1-3.8,0.2-7.5,0.3-11.3
	c-0.1,0.4-0.2,0.7-0.3,1.1C-37.4,790-37.9,791.6-38.3,793.2z"/>
<path class="st0" d="M-85.9,821.6c-2.3-0.3-4.5-1.2-6.5-2.5c-3.9,8.5-7.6,17.1-11.3,25.8c1.5,0.5,3,0.9,4.6,1.4c1.5-2.7,3-5.3,4.5-8
	C-91.7,832.8-88.8,827.2-85.9,821.6z"/>
<path class="st1" d="M1939.1,860.9c-3.1-98.6-3-197.4-7.1-295.9c-4.2-99.9-8-199.9-8.1-300.1c0-5.3,0.9-10.1,2.4-14.4
	c-3.6-4.1-7.2-7-11-8.4c-7.5-2.9-13.5,0.6-22.9,5.5c0,0-52.7,86.7-185.4,109.7c-101.4,17.5-117.2-112.5-239.6-109.7
	c-88.1,2-82.2,42.7-168.6,45.7c-131,4.5-148.6-88.9-252.8-60.3c-62.8,17.2-85.8,59.1-145.9,46.2c-0.3,0-0.5,0.1-0.8,0.1
	c-1,0-2-0.2-3-0.4c-0.9,0.2-1.9,0.4-2.8,0.4c-2.5,0-4.8-0.7-6.9-1.9c-1.9-0.2-3.6-0.9-5.3-1.8c-29.6-3.6-55.9-20.8-83.4-36.3
	c-11.6-6.5-23-13.8-34.3-21.6c-2.6-1.8-5.1-3.6-7.7-5.3c-3.7-1.1-7.3-2.9-10.9-5.5c-1.1-0.8-2.1-1.6-3.1-2.5
	c-3.3-1.8-6.7-3.7-10-5.4c-5.2-2.7-10.5-4.6-15.9-6.3c-3.6-0.7-7.2-1.2-10.7-1.5c-10.4-1-20.8-1-31.2,0c-11.3,1.1-15.9,2-25.9,4.9
	c-3.3,1.6-6.6,3.3-9.9,5.2c-12.5,7.1-19.9,11.9-31.9,20.2c-11.4,8-23.1,15.3-34.4,23.6c-9.3,6.9-18.2,13.6-28.1,17.1
	c-11.3,8.8-28.1,18.8-61.4,31.2c-39.5,14.8-53,21.7-75.9,18.3c-24.9-3.7-41.4-16.6-61.4-31.1c-4.2-3-73-52.5-119.2-75
	c-19.7-9.6-82.3-38.9-156.5-21.9c-32.3,7.4-28.1,14.7-93.9,40.2c-63.2,24.5-92.4,86.1-121.6,85.9c-72.4-0.4-90.8-98-162.5-93.2
	c-17.8,1.2-67.7,5.7-100.4,25.4c0.2,78.8,4.4,157.4,5.5,236.1c0.5,35,0.4,70.1-1,105.1c-1.4,35.9-4.1,71.8-6.2,107.6
	c-1.3,22.2-2.5,44.3-3.6,66.5c0.3,4.7,0.1,9.3-0.7,14.4c-2.3,44.6-4.3,89.3-6.1,134c-1.4,35.9-2.7,71.8-3.8,107.8
	c7.5,33.2,15.6,64.9,20,93.2c0.3,0,0.7-0.1,1-0.1c44.1,0.2,87.7,11.3,131.7,14c39.9,2.4,80.1,0.8,120,0.6
	c40.2-0.2,80.5-0.4,120.7-0.1c80.7,0.6,161.5,3.4,242,13.1c2.9,0.4,5.6,1.4,8.1,3c0.5-0.1,1-0.1,1.5-0.1h89.9
	c52.7,0,105.6,1.8,158.3-0.2c48.5-1.8,96.6-14.3,145.1-16.8c21.9-2.8,44.1-5.3,66.6-7.6c207.6-20.8,383.9-11.8,533.3,5.3
	c28.1,0,56.2-0.1,84.3-0.3c125.4-0.6,250.8-2,376.2-2c0.3,0,0.6,0,0.9,0.1c51.1-2.4,102.2-4.6,153.3-4.7c7.9,0,14.5,6.8,17.9,16.6
	c26.9-22.3,106.8-6.9,69.5-95.5c-10-23.6,19.9-48.3,27.9-75.6C1941.4,924.6,1940.1,892.7,1939.1,860.9z"/>
<path class="st0" d="M1725.9,1138.1c12,0,23.5-0.3,34.6-1C1748.9,1137.4,1737.4,1137.8,1725.9,1138.1z"/>
<path class="st0" d="M2057-15"/>
</svg>
