<?xml version="1.0" encoding="utf-8"?>
<!-- Generator: Adobe Illustrator 26.5.3, SVG Export Plug-In . SVG Version: 6.00 Build 0)  -->
<svg version="1.1" id="Layer_1" xmlns="http://www.w3.org/2000/svg" xmlns:xlink="http://www.w3.org/1999/xlink" x="0px" y="0px"
	 viewBox="0 0 1920 1080" style="enable-background:new 0 0 1920 1080;" xml:space="preserve">
<style type="text/css">
	.st0{fill:#73D0FF;}
	.st1{fill:#DBF1F9;}
</style>
<path class="st0" d="M299.2,1121.8c8.9,0,17.9,0.1,26.8,0.1c-14.4-0.2-28.8-0.2-43.2-0.3C288.3,1121.8,293.7,1121.8,299.2,1121.8z"
	/>
<path class="st0" d="M198.6,1159.9c-19.6-1.1-39.3-1.7-59-2.1c18.9,1.8,39.1,2.4,60.4,2.1C199.6,1160,199.1,1159.9,198.6,1159.9z"/>
<path class="st0" d="M-38.3,793.2c0.1,0.3,0.1,0.5,0.2,0.8c0.4,2,0.7,3.9,1.1,5.9c0-0.5,0-0.9,0.1-1.4c0.1-3.8,0.2-7.5,0.3-11.3
	c-0.1,0.4-0.2,0.7-0.3,1.1C-37.4,790-37.9,791.6-38.3,793.2z"/>
<path class="st0" d="M-85.9,821.6c-2.3-0.3-4.5-1.2-6.5-2.5c-3.9,8.5-7.6,17.1-11.3,25.8c1.5,0.5,3,0.9,4.6,1.4c1.5-2.7,3-5.3,4.5-8
	C-91.7,832.8-88.8,827.2-85.9,821.6z"/>
<path class="st1" d="M2005.4,829.2c-3.3-117.8-3.2-235.8-7.5-353.4c-4.4-119.4-8.4-238.7-8.5-358.4c0-6.3,0.9-12.1,2.5-17.2
	c-3.8-4.9-7.6-8.4-11.6-10c-7.9-3.4-14.2,0.7-24.1,6.6c0,0-55.4,103.5-194.7,131.1C1655,248.6,1638.4,93.4,1509.8,96.7
	c-92.5,2.4-86.3,51-177.1,54.6c-137.6,5.4-156.1-106.2-265.5-72c-66,20.5-90.1,70.5-153.3,55.2c-0.3,0-0.5,0.1-0.8,0.1
	c-1.1,0-2.1-0.2-3.2-0.5c-0.9,0.2-2,0.5-2.9,0.5c-2.6,0-5-0.9-7.2-2.3c-2-0.2-3.8-1.1-5.6-2.2c-31.1-4.3-58.7-24.9-87.6-43.3
	c-12.2-7.8-24.2-16.5-36-25.8c-2.7-2.2-5.4-4.3-8.1-6.3c-3.9-1.3-7.7-3.4-11.4-6.6c-1.2-1-2.2-2-3.3-2.9c-3.5-2.2-7-4.4-10.5-6.5
	c-5.5-3.2-11-5.5-16.7-7.6c-3.8-0.9-7.6-1.5-11.2-1.8c-10.9-1.2-21.8-1.2-32.8,0c-11.9,1.3-16.7,2.4-27.2,5.9
	c-3.5,2-6.9,3.9-10.4,6.2c-13.1,8.4-20.9,14.2-33.5,24.2c-12,9.5-24.3,18.3-36.1,28.2c-9.8,8.3-19.1,16.2-29.5,20.4
	c-11.9,10.5-29.5,22.5-64.5,37.2c-41.5,17.7-55.7,25.9-79.7,21.8c-26.2-4.4-43.5-19.8-64.5-37.1c-4.4-3.5-76.7-62.7-125.2-89.6
	C185.3,34.9,119.6-0.1,41.6,20.3C7.7,29.1,12.1,37.9-57,68.3c-66.4,29.3-97.1,102.9-127.7,102.6c-76-0.5-95.4-117-170.7-111.3
	c-18.7,1.5-71.1,6.8-105.5,30.4c0.2,94.1,4.6,187.9,5.8,282c0.5,41.9,0.4,83.7-1.1,125.6c-1.5,42.8-4.3,85.8-6.5,128.5
	c-1.4,26.5-2.6,53-3.8,79.4c0.3,5.6,0.1,11.1-0.7,17.2c-2.4,53.2-4.5,106.7-6.4,160c-1.5,42.8-2.8,85.8-4,128.8
	c7.9,39.7,16.4,77.5,21,111.3c0.3,0,0.7-0.1,1.1-0.1c46.3,0.2,92.1,13.5,138.3,16.7c41.9,2.8,84.1,1,126,0.7
	c42.2-0.2,84.6-0.5,126.8-0.1c84.8,0.7,169.6,4,254.2,15.6c3,0.5,5.9,1.7,8.5,3.5c0.5-0.1,1.1-0.1,1.6-0.1h94.4
	c55.4,0,110.9,2.2,166.3-0.2c50.9-2.2,101.5-17.1,152.4-20c23-3.3,46.3-6.3,70-9c218.1-24.9,403.3-14,560.2,6.3
	c29.5,0,59-0.1,88.5-0.4c131.7-0.7,263.4-2.4,395.2-2.4c0.3,0,0.6,0,0.9,0.1c53.7-2.8,107.4-5.5,161-5.6c8.3,0,15.2,8.2,18.8,19.8
	c28.3-26.6,112.2-8.3,73-114.1c-10.5-28.2,20.9-57.7,29.3-90.3C2007.8,905.3,2006.4,867.1,2005.4,829.2z"/>
<path class="st0" d="M1725.9,1138.1c12,0,23.5-0.3,34.6-1C1748.9,1137.4,1737.4,1137.8,1725.9,1138.1z"/>
<path class="st0" d="M2057-15"/>
</svg>
