<?xml version="1.0" encoding="UTF-8"?><svg id="Layer_2" xmlns="http://www.w3.org/2000/svg" width="81.55mm" height="30.37mm" viewBox="0 0 231.17 86.1"><defs><style>.cls-1{fill:#56c9e8;}.cls-2{fill:#55c9e9;}.cls-3{fill:#5bcaeb;}</style></defs><g id="Layer_1-2"><g><path class="cls-2" d="M87.41,27.18c-2.38,2.02-4.46,3.71-5.65,4.75v8.56c0,.76-.65,1.36-1.49,1.36-.77,0-1.49-.65-1.49-1.36V14.04c0-.76,.71-1.36,1.49-1.36,.83,0,1.49,.6,1.49,1.36v14.23c4.46-3.76,12.62-10.58,17.44-15.16,.3-.27,.66-.44,1.07-.44,.77,0,1.49,.65,1.49,1.36,0,.33-.18,.65-.42,.93-3.09,3-7.68,6.98-11.72,10.42,3.63,3.98,9.94,11.07,12.97,14.23,.24,.22,.36,.54,.36,.87,0,.65-.66,1.36-1.49,1.36-.42,0-.83-.16-1.13-.49-3.04-3.16-9.28-10.14-12.91-14.18Z"/><path class="cls-2" d="M134.83,27.67h-19.94v12.82c0,.76-.66,1.36-1.49,1.36-.77,0-1.49-.65-1.49-1.36V14.04c0-.76,.71-1.36,1.49-1.36,.83,0,1.49,.6,1.49,1.36v10.91h19.94V14.04c0-.76,.71-1.36,1.49-1.36,.83,0,1.49,.6,1.49,1.36v26.45c0,.76-.66,1.36-1.49,1.36-.77,0-1.49-.65-1.49-1.36v-12.82Z"/><path class="cls-2" d="M169.11,33.94h-16.78c-1.13,2.62-2.14,5.02-2.92,6.98-.24,.6-.89,.93-1.49,.93-.71,0-1.43-.6-1.43-1.42,0-.22,.06-.44,.59-1.69,2.68-6.6,7.8-17.4,11.9-25.74,.24-.49,.83-.82,1.43-.82h.24c.59,0,1.19,.27,1.43,.76,4.28,8.45,10.12,20.4,12.44,25.79,.59,1.31,.65,1.58,.65,1.75,0,.71-.71,1.36-1.49,1.36-.59,0-1.13-.33-1.37-.87-.83-1.96-1.96-4.42-3.21-7.04Zm-15.53-2.73h14.28c-2.32-4.85-4.94-10.14-7.32-14.72-2.2,4.64-4.76,9.87-6.96,14.72Z"/><path class="cls-2" d="M186.96,17.64v22.85c0,.76-.66,1.36-1.49,1.36-.77,0-1.49-.65-1.49-1.36V14.04c0-.76,.71-1.36,1.43-1.36,.89,0,1.31,.16,1.61,.54,3.99,4.85,13.57,15.82,20.11,23.67V14.04c0-.76,.71-1.36,1.49-1.36,.83,0,1.49,.6,1.49,1.36v26.45c0,.76-.65,1.36-1.43,1.36-.83,0-1.31-.16-1.61-.54-5.48-6.71-14.76-17.34-20.11-23.67Z"/><path class="cls-2" d="M223.55,41.85c-.77,0-1.49-.65-1.49-1.36V14.04c0-.76,.71-1.36,1.49-1.36,.83,0,1.49,.6,1.49,1.36v26.45c0,.76-.65,1.36-1.49,1.36Z"/></g><g><path class="cls-3" d="M134.96,47.18c-.05-.14-.1-.29-.1-.35,0-.12,.08-.25,.25-.25,.1,0,.21,.06,.24,.17,.34,1.08,1.41,3.43,1.94,4.49,.54-1.1,1.52-3.25,1.93-4.48,.04-.11,.14-.17,.25-.17,.13,0,.24,.12,.24,.26,0,.04-.03,.15-.12,.4-.42,1.13-1.64,3.81-2.08,4.66-.04,.08-.13,.13-.22,.13-.1,0-.19-.07-.25-.19-.4-.76-1.71-3.63-2.08-4.67Z"/><path class="cls-3" d="M144.08,50.48h-2.82c-.19,.48-.36,.92-.49,1.28-.04,.11-.15,.17-.25,.17-.12,0-.24-.11-.24-.26,0-.04,0-.08,.1-.31,.45-1.21,1.31-3.19,2-4.72,.04-.09,.14-.15,.24-.15h.04c.1,0,.2,.05,.24,.14,.72,1.55,1.7,3.74,2.09,4.73,.1,.24,.11,.29,.11,.32,0,.13-.12,.25-.25,.25-.1,0-.19-.06-.23-.16-.14-.36-.33-.81-.54-1.29Zm-2.61-.5h2.4c-.39-.89-.83-1.86-1.23-2.7-.37,.85-.8,1.81-1.17,2.7Z"/><path class="cls-3" d="M147.09,47.5v4.19c0,.14-.11,.25-.25,.25-.13,0-.25-.12-.25-.25v-4.85c0-.14,.12-.25,.24-.25,.15,0,.22,.03,.27,.1,.67,.89,2.28,2.9,3.38,4.34v-4.19c0-.14,.12-.25,.25-.25,.14,0,.25,.11,.25,.25v4.85c0,.14-.11,.25-.24,.25-.14,0-.22-.03-.27-.1-.92-1.23-2.48-3.18-3.38-4.34Z"/><path class="cls-3" d="M152.94,51.68v-4.85c0-.14,.11-.25,.25-.25h1.76c1.32,0,2.52,1.09,2.52,2.67s-1,2.68-2.52,2.68h-1.76c-.14,0-.25-.11-.25-.25Zm.5-.25h1.51c1.24,0,2.02-.98,2.02-2.18,0-1.26-.94-2.17-2.02-2.17h-1.51v4.35Z"/><path class="cls-3" d="M159.06,46.84c0-.15,.12-.25,.25-.25h2.85c.14,0,.25,.11,.25,.25,0,.13-.11,.25-.25,.25h-2.6v1.93h2.09c.14,0,.25,.11,.25,.25,0,.13-.11,.25-.25,.25h-2.09v2.17c0,.14-.11,.25-.25,.25-.13,0-.25-.12-.25-.25v-4.85Z"/><path class="cls-3" d="M166.5,50.48h-2.82c-.19,.48-.36,.92-.49,1.28-.04,.11-.15,.17-.25,.17-.12,0-.24-.11-.24-.26,0-.04,.01-.08,.1-.31,.45-1.21,1.31-3.19,2-4.72,.04-.09,.14-.15,.24-.15h.04c.1,0,.2,.05,.24,.14,.72,1.55,1.7,3.74,2.09,4.73,.1,.24,.11,.29,.11,.32,0,.13-.12,.25-.25,.25-.1,0-.19-.06-.23-.16-.14-.36-.33-.81-.54-1.29Zm-2.61-.5h2.4c-.39-.89-.83-1.86-1.23-2.7-.37,.85-.8,1.81-1.17,2.7Z"/><path class="cls-3" d="M169.39,47.85c0,.43,.29,.78,1.37,1.03,1.43,.33,1.83,.92,1.83,1.67s-.52,1.47-1.89,1.47c-.64,0-1.25-.15-1.81-.46-.08-.05-.13-.13-.13-.22,0-.12,.1-.25,.25-.25,.04,0,.08,.01,.12,.03,.48,.27,1.01,.4,1.57,.4,.91,0,1.39-.43,1.39-.97s-.42-.92-1.43-1.17c-1.42-.35-1.77-.87-1.77-1.57,0-.63,.56-1.29,1.61-1.29,.73,0,1.09,.12,1.59,.32,.1,.04,.16,.13,.16,.23,0,.13-.12,.25-.25,.25-.03,0-.06,0-.23-.08-.32-.13-.66-.22-1.27-.22-.68,0-1.11,.4-1.11,.83Z"/><path class="cls-3" d="M175.58,47.09h-1.87c-.13,0-.25-.12-.25-.25,0-.14,.12-.25,.25-.25h4.28c.14,0,.25,.11,.25,.25,0,.13-.11,.25-.25,.25h-1.91v4.6c0,.14-.11,.25-.25,.25-.13,0-.25-.12-.25-.25v-4.6Z"/><path class="cls-3" d="M179.57,46.84c0-.13,.1-.25,.22-.25h2.8c.14,0,.25,.11,.25,.25,0,.13-.11,.25-.25,.25h-2.52v1.74h2.09c.14,0,.25,.11,.25,.25,0,.13-.11,.25-.25,.25h-2.09v2.11h2.54c.14,0,.25,.11,.25,.25,0,.13-.11,.25-.25,.25h-2.79c-.13,0-.25-.12-.25-.25v-4.85Z"/><path class="cls-3" d="M187.66,47.85c0,.43,.29,.78,1.37,1.03,1.43,.33,1.83,.92,1.83,1.67s-.52,1.47-1.89,1.47c-.64,0-1.25-.15-1.81-.46-.08-.05-.13-.13-.13-.22,0-.12,.1-.25,.25-.25,.04,0,.08,.01,.12,.03,.48,.27,1.01,.4,1.57,.4,.91,0,1.39-.43,1.39-.97s-.42-.92-1.43-1.17c-1.42-.35-1.77-.87-1.77-1.57,0-.63,.56-1.29,1.61-1.29,.73,0,1.09,.12,1.59,.32,.1,.04,.16,.13,.16,.23,0,.13-.12,.25-.25,.25-.03,0-.06,0-.23-.08-.32-.13-.66-.22-1.27-.22-.68,0-1.11,.4-1.11,.83Z"/><path class="cls-3" d="M197.78,47.47c-.67,1.35-1.39,2.92-1.89,4.13-.04,.1-.11,.17-.22,.17-.1,0-.2-.05-.24-.14-.59-1.23-1.38-2.9-1.98-4.15-.22,1.41-.46,3.27-.57,4.26,0,.12-.13,.22-.26,.22s-.24-.11-.24-.26l.03-.29c.1-.89,.4-3.27,.65-4.7,.02-.12,.14-.21,.26-.21,.08,0,.14,.03,.18,.08,.05,.05,.12,.15,.16,.24,.55,1.12,1.34,2.75,1.99,4.08,.57-1.31,1.32-2.99,2.01-4.28,.06-.1,.14-.13,.23-.13,.12,0,.24,.08,.26,.2,.32,1.57,.64,3.77,.71,4.22,.1,.66,.11,.76,.11,.8,0,.14-.11,.25-.25,.25-.12,0-.23-.09-.25-.22-.15-1.14-.42-2.83-.69-4.27Z"/><path class="cls-3" d="M202.1,50c-.45-.59-1.63-2.35-2.04-3.04-.02-.04-.03-.08-.03-.13,0-.12,.08-.24,.24-.24,.08,0,.17,.04,.21,.11,.38,.62,1.36,2.09,1.88,2.81,.55-.78,1.46-2.2,1.82-2.81,.04-.07,.12-.11,.21-.11,.15,0,.24,.1,.24,.24,0,.04,0,.09-.03,.13-.4,.67-1.49,2.35-2,3.06v1.66c0,.14-.11,.25-.25,.25-.13,0-.25-.12-.25-.25v-1.68Z"/><path class="cls-3" d="M207.56,49.24c-.4,.37-.75,.68-.95,.87v1.57c0,.14-.11,.25-.25,.25-.13,0-.25-.12-.25-.25v-4.85c0-.14,.12-.25,.25-.25,.14,0,.25,.11,.25,.25v2.61c.75-.69,2.12-1.94,2.93-2.78,.05-.05,.11-.08,.18-.08,.13,0,.25,.12,.25,.25,0,.06-.03,.12-.07,.17-.52,.55-1.29,1.28-1.97,1.91,.61,.73,1.67,2.03,2.18,2.61,.04,.04,.06,.1,.06,.16,0,.12-.11,.25-.25,.25-.07,0-.14-.03-.19-.09-.51-.58-1.56-1.86-2.17-2.6Z"/><path class="cls-3" d="M213.13,49.24c-.4,.37-.75,.68-.95,.87v1.57c0,.14-.11,.25-.25,.25-.13,0-.25-.12-.25-.25v-4.85c0-.14,.12-.25,.25-.25,.14,0,.25,.11,.25,.25v2.61c.75-.69,2.12-1.94,2.93-2.78,.05-.05,.11-.08,.18-.08,.13,0,.25,.12,.25,.25,0,.06-.03,.12-.07,.17-.52,.55-1.29,1.28-1.97,1.91,.61,.73,1.67,2.03,2.18,2.61,.04,.04,.06,.1,.06,.16,0,.12-.11,.25-.25,.25-.07,0-.14-.03-.19-.09-.51-.58-1.56-1.86-2.17-2.6Z"/><path class="cls-3" d="M217.26,46.84c0-.13,.1-.25,.22-.25h2.8c.14,0,.25,.11,.25,.25,0,.13-.11,.25-.25,.25h-2.52v1.74h2.09c.14,0,.25,.11,.25,.25,0,.13-.11,.25-.25,.25h-2.09v2.11h2.54c.14,0,.25,.11,.25,.25,0,.13-.11,.25-.25,.25h-2.79c-.13,0-.25-.12-.25-.25v-4.85Z"/><path class="cls-3" d="M223.96,49.94h-1.34v1.74c0,.14-.11,.25-.25,.25-.13,0-.25-.12-.25-.25v-4.85c0-.14,.11-.25,.25-.25h1.47c1.17,0,1.91,.71,1.91,1.68,0,.72-.39,1.36-1.21,1.59l1.43,1.67s.06,.1,.06,.16c0,.12-.11,.25-.25,.25-.07,0-.14-.03-.19-.09l-1.63-1.9Zm-1.34-.5h1.22c.92,0,1.41-.52,1.41-1.18,0-.71-.58-1.18-1.41-1.18h-1.22v2.36Z"/></g><path class="cls-1" d="M145.12,84.21c-3.98-7.41-9.03-14.26-15-20.2-3.04-3.02-6.32-5.79-9.78-8.32s-6.95-4.84-11.26-5.65c-7.92-1.5-15.95,1.38-22.43,5.86-6.83,4.72-11.61,11.62-18.06,16.77-2.35,1.87-6.3,4.82-9.53,3.76-2.47-.82-3.54-3.72-3.95-6.05-.58-3.33,.31-6.22,1.76-9.2,1.99-4.09,4.18-7.94,5.38-12.36,1.89-6.96,1.9-14.74-2.79-20.63-2.38-2.99-5.78-5.46-9.62-6.04-3.41-.51-6.68,.61-9.51,2.47-3.05,2-5.63,4.62-8.27,7.12-1.5,1.42-2.85,2.69-4.82,3.44-2.12,.81-4.37,1.13-6.63,1.06-4.14-.12-8.63-1.24-11.56-4.34-2.36-2.51-3.56-5.87-4.7-9.05-.59-1.67-1.18-3.34-1.86-4.97-.61-1.46-3.03-.82-2.41,.66,2.64,6.3,3.98,13.94,10.39,17.65,3.7,2.14,8.65,2.9,12.87,2.44,2.16-.24,4.24-.8,6.2-1.75,1.77-.86,3.12-2.28,4.53-3.62,4.78-4.55,10.88-11.13,18.12-7.82s9.62,11.55,8.47,18.89c-.67,4.26-2.16,8.24-4.14,12.05-1.75,3.36-3.8,6.81-4.07,10.67-.35,5.06,2.1,12.52,8.36,12.06,3.74-.28,7.2-2.73,10-5.04,3.17-2.62,5.93-5.68,8.81-8.6s5.95-5.95,9.58-8.27c3.43-2.19,7.18-3.87,11.19-4.65s7.88-.5,11.57,.91c2.09,.8,3.94,2.16,5.77,3.44s3.56,2.6,5.25,4.01c6.55,5.45,12.23,11.92,16.79,19.12,1.12,1.78,2.18,3.59,3.17,5.45,.76,1.42,2.92,.16,2.16-1.26h0Z"/></g></svg>